<?xml version="1.0" standalone="no"?>
<!DOCTYPE svg PUBLIC "-//W3C//DTD SVG 20010904//EN"
 "http://www.w3.org/TR/2001/REC-SVG-20010904/DTD/svg10.dtd">
<svg version="1.0" xmlns="http://www.w3.org/2000/svg"
 width="994.000000pt" height="996.000000pt" viewBox="0 0 994.000000 996.000000"
 preserveAspectRatio="xMidYMid meet">

<g transform="translate(0.000000,996.000000) scale(0.100000,-0.100000)"
fill="#000000" stroke="none">
<path d="M4720 9870 c-297 -19 -676 -76 -915 -140 -38 -10 -113 -30 -167 -44
-414 -111 -937 -350 -1333 -612 -300 -198 -486 -347 -726 -579 -488 -475 -848
-994 -1117 -1610 -332 -762 -465 -1670 -366 -2510 93 -796 357 -1512 808
-2190 190 -286 496 -642 746 -870 113 -103 199 -177 221 -193 13 -9 26 -19 29
-22 14 -19 276 -209 401 -292 398 -262 878 -483 1329 -612 516 -147 1095 -215
1585 -187 607 34 1085 137 1617 347 167 66 476 215 633 306 372 216 738 499
1043 807 741 749 1225 1715 1376 2751 68 461 68 982 0 1440 -43 288 -115 589
-211 870 -99 294 -195 507 -375 840 -40 73 -155 257 -222 353 -33 49 -68 99
-76 110 -37 55 -250 318 -319 396 -736 818 -1711 1368 -2781 1565 -372 68
-826 97 -1180 76z m660 -71 c806 -59 1617 -338 2300 -792 630 -419 1184 -1007
1542 -1637 80 -141 158 -285 158 -292 0 -3 -42 -22 -92 -43 -51 -21 -128 -53
-171 -71 -43 -19 -80 -34 -82 -34 -2 0 -28 46 -58 103 -130 245 -299 502 -470
714 -52 65 -106 129 -119 143 -13 14 -63 70 -113 124 -176 194 -466 445 -710
615 -620 433 -1312 692 -2090 782 -235 27 -683 30 -911 5 -478 -52 -899 -160
-1318 -338 -978 -416 -1793 -1182 -2270 -2135 -31 -62 -60 -113 -64 -113 -13
0 -326 121 -335 130 -11 10 60 157 170 355 437 782 1105 1448 1894 1888 833
464 1765 667 2739 596z m58 -783 c510 -62 935 -189 1381 -412 280 -139 520
-292 744 -472 75 -61 95 -88 46 -62 -43 24 -313 111 -448 146 -515 133 -1033
138 -1452 13 -230 -68 -412 -156 -611 -295 -43 -30 -80 -54 -84 -54 -4 0 -48
26 -98 59 -331 214 -744 349 -1226 401 -156 17 -511 15 -665 -5 -154 -19 -307
-55 -407 -95 -76 -31 -76 -30 12 36 242 180 598 378 880 489 275 108 562 183
895 233 60 10 183 22 355 36 99 8 563 -4 678 -18z m-2893 -1138 c-3 -178 -7
-506 -10 -730 l-6 -406 58 -17 c32 -9 110 -37 173 -62 509 -201 827 -511 983
-959 64 -183 102 -432 96 -627 -4 -103 -7 -118 -36 -178 -50 -102 -160 -199
-268 -236 -34 -12 -80 -18 -145 -17 -89 0 -100 2 -170 36 -41 20 -76 35 -78
33 -5 -5 45 -130 86 -211 89 -178 210 -299 389 -388 39 -20 73 -36 76 -36 2 0
8 28 11 62 15 127 72 220 167 273 50 28 62 30 155 30 l101 0 -28 35 c-53 66
-73 126 -77 236 l-4 101 108 6 c188 11 403 80 523 167 l43 32 -28 17 c-80 49
-164 203 -164 301 l0 27 68 -4 c80 -6 200 11 257 36 55 24 109 73 131 119 58
120 21 318 -81 431 -52 58 -103 71 -315 81 -99 5 -200 16 -233 24 -32 9 -60
16 -62 16 -3 0 -23 16 -45 36 -28 25 -44 52 -55 87 -8 28 -13 52 -10 55 2 3
26 -6 52 -18 26 -13 66 -25 88 -27 36 -5 47 0 101 41 66 49 102 66 140 66 36
0 30 13 -31 60 -101 78 -190 90 -310 41 -38 -16 -72 -27 -74 -25 -2 2 10 32
27 67 57 116 173 206 296 228 62 12 64 13 75 51 7 21 26 55 44 74 l31 36 -43
128 c-23 70 -65 176 -93 236 -107 235 -159 356 -154 362 9 8 88 3 123 -9 33
-11 113 -99 113 -125 0 -18 10 -17 34 1 32 24 74 18 106 -14 41 -40 46 -71 25
-163 -21 -91 -18 -104 38 -131 30 -15 40 -16 59 -6 13 7 26 17 30 23 15 21 8
77 -14 119 -33 62 -32 162 2 204 25 32 84 63 120 63 16 0 20 7 20 38 0 29 7
45 26 63 15 13 39 41 55 62 23 32 28 35 33 19 4 -10 14 -27 24 -38 39 -43 62
-84 62 -112 0 -28 5 -32 50 -47 68 -23 120 -72 121 -116 2 -52 0 -58 -36 -145
-38 -90 -37 -117 6 -139 34 -18 100 -20 117 -3 17 17 15 64 -8 138 -25 81 -25
107 -1 146 28 46 75 59 136 39 l47 -16 26 29 c42 46 109 83 163 89 l50 6 -20
-49 c-91 -231 -134 -353 -169 -479 -41 -144 -68 -282 -59 -292 23 -23 174 -21
304 3 l32 6 -14 -46 c-30 -99 -84 -191 -164 -278 l-52 -56 26 -28 c91 -98 111
-556 38 -897 -24 -112 -9 -211 49 -327 24 -47 44 -87 46 -90 1 -3 -19 -14 -45
-23 -54 -19 -138 -22 -179 -7 -15 6 -29 9 -31 6 -3 -2 2 -32 11 -65 39 -152
112 -230 294 -318 2 0 -6 -19 -17 -41 -29 -57 -122 -155 -174 -182 l-44 -23
51 -26 c126 -63 183 -162 193 -338 3 -57 9 -103 14 -103 4 0 48 13 97 29 256
84 443 227 561 431 34 58 81 168 81 189 0 5 -39 6 -87 4 -112 -7 -190 8 -280
52 -131 64 -212 179 -240 341 -76 444 338 990 1062 1401 120 69 253 131 405
191 l125 50 3 736 c1 405 5 736 8 736 10 0 168 -146 282 -260 266 -267 506
-586 688 -912 27 -49 54 -88 61 -88 6 0 33 10 60 21 26 12 101 43 166 70 l119
48 50 -106 c63 -133 143 -340 196 -503 392 -1210 250 -2532 -388 -3630 -349
-599 -836 -1116 -1410 -1495 -626 -414 -1291 -651 -2045 -730 -219 -23 -653
-23 -870 -1 -646 69 -1250 261 -1791 571 -149 86 -424 272 -554 375 -686 544
-1198 1268 -1476 2085 -283 829 -316 1704 -98 2570 53 210 222 678 268 740 12
17 23 15 186 -49 94 -37 173 -66 174 -64 2 2 13 26 25 53 86 187 292 517 432
690 176 218 349 397 539 557 67 57 268 208 276 208 2 0 2 -145 -1 -322z"/>
<path d="M5022 7443 c-39 -33 -29 -108 15 -119 61 -16 110 32 91 87 -17 49
-68 64 -106 32z"/>
<path d="M4948 6672 c-14 -2 -32 -10 -39 -19 -19 -22 10 -40 76 -48 56 -7 95
5 95 29 0 23 -77 45 -132 38z"/>
<path d="M8388 6104 c-106 -86 -202 -162 -212 -170 -19 -13 -19 -15 5 -85 l24
-72 275 7 c151 4 276 8 277 10 1 1 -6 23 -15 49 l-17 47 -52 0 -52 0 -19 53
c-11 28 -28 76 -38 105 -21 59 -25 51 40 97 17 13 18 18 6 60 -7 25 -16 48
-20 50 -5 3 -95 -65 -202 -151z m117 -129 c15 -42 25 -78 22 -82 -3 -3 -63 -7
-134 -10 -143 -5 -139 -9 -52 58 19 15 57 45 84 67 28 23 51 41 51 41 1 1 14
-33 29 -74z"/>
<path d="M1281 5915 c-7 -26 -10 -49 -7 -52 2 -2 37 -12 78 -22 84 -21 80 -12
53 -140 -19 -90 -15 -143 11 -172 43 -47 213 -78 262 -48 26 16 56 71 70 129
27 109 52 219 52 228 0 5 -12 12 -27 14 -28 5 -404 90 -454 103 -25 6 -27 3
-38 -40z m339 -136 c30 -6 58 -14 62 -18 10 -9 -25 -156 -42 -176 -15 -18 -49
-19 -100 -4 -55 17 -63 36 -44 116 23 106 23 105 48 99 12 -3 46 -10 76 -17z"/>
<path d="M8685 5390 c-66 -66 -124 -120 -129 -120 -5 0 -27 14 -50 30 -23 17
-77 58 -121 90 -44 33 -84 60 -89 60 -4 0 -6 -27 -4 -60 3 -45 9 -64 24 -74
10 -8 60 -43 109 -78 58 -41 91 -71 93 -85 3 -22 -18 -27 -163 -36 l-40 -2 2
-48 c1 -27 4 -51 6 -54 5 -4 104 2 422 25 90 7 90 7 93 36 2 15 1 39 -2 52 -6
23 -7 23 -116 17 -103 -6 -110 -5 -110 13 0 10 46 65 105 124 l106 106 -8 62
-8 62 -120 -120z"/>
<path d="M1251 5238 c-20 -7 -43 -27 -59 -51 -24 -37 -27 -51 -31 -153 -6
-199 24 -225 264 -231 130 -4 155 -2 185 14 59 30 75 77 75 218 0 139 -10 163
-77 189 -52 21 -307 31 -357 14z m276 -104 c58 -7 73 -31 73 -115 0 -51 -5
-72 -19 -90 -19 -23 -24 -24 -143 -21 -178 4 -188 10 -188 122 0 74 16 104 60
110 39 6 152 3 217 -6z"/>
<path d="M8337 4666 c-32 -30 -54 -103 -62 -209 -7 -100 2 -123 65 -155 36
-19 57 -23 104 -19 52 3 63 7 86 35 25 30 32 51 60 179 8 37 18 54 32 59 31 9
87 -5 98 -26 17 -33 -9 -178 -33 -182 -7 -1 -25 -2 -42 -2 -27 -1 -30 -5 -37
-46 -9 -51 -1 -60 55 -60 87 0 117 41 142 194 24 148 5 193 -91 222 -131 39
-186 -2 -216 -165 -5 -31 -17 -68 -25 -84 -13 -26 -18 -28 -51 -22 -62 11 -68
23 -55 111 12 81 21 94 66 94 20 0 27 5 27 19 0 10 3 33 6 50 l7 31 -55 0
c-44 0 -60 -5 -81 -24z"/>
<path d="M1595 4479 c-33 -5 -97 -13 -142 -19 -46 -5 -122 -15 -169 -22 l-85
-11 5 -36 c3 -20 13 -94 22 -166 9 -71 17 -132 19 -135 2 -3 22 -4 44 -2 47 5
46 -3 27 137 -8 55 -11 103 -7 106 6 6 73 15 291 40 126 13 130 15 130 47 0
15 -3 37 -6 50 -7 25 -23 26 -129 11z"/>
<path d="M8594 3885 c-26 -82 -41 -114 -50 -111 -49 19 -396 127 -399 124 -1
-1 -10 -23 -18 -48 -14 -41 -14 -46 1 -52 27 -11 445 -146 465 -150 15 -2 26
22 67 147 28 83 50 157 50 166 0 9 -11 20 -24 23 -13 3 -31 9 -39 12 -12 4
-24 -19 -53 -111z"/>
<path d="M1575 3873 c-126 -37 -232 -68 -234 -70 -4 -3 16 -94 22 -100 2 -1
81 20 177 48 96 28 208 60 248 71 78 22 82 27 61 87 -7 18 -18 31 -27 30 -10
0 -120 -30 -247 -66z"/>
<path d="M1903 3596 c-30 -14 -29 -25 7 -96 l30 -59 -118 -62 c-64 -34 -139
-74 -167 -89 -27 -15 -60 -33 -73 -39 l-22 -12 21 -42 c12 -23 23 -44 25 -46
3 -3 191 94 316 163 36 20 68 33 71 29 3 -4 17 -30 32 -58 15 -27 31 -54 35
-58 7 -8 80 22 80 32 0 3 -26 53 -58 111 -31 58 -73 135 -92 172 -36 69 -45
75 -87 54z"/>
<path d="M7922 3372 c-45 -82 -82 -153 -82 -159 0 -6 26 -26 58 -44 31 -17
129 -72 217 -122 88 -49 163 -91 167 -93 9 -6 180 305 173 316 -7 11 -65 43
-69 38 -11 -15 -78 -132 -96 -168 -12 -25 -24 -46 -25 -48 -4 -5 -104 49 -111
59 -3 6 20 55 51 110 31 55 55 102 53 103 -25 20 -55 36 -64 36 -6 0 -35 -45
-65 -100 -30 -55 -58 -100 -63 -100 -4 0 -30 12 -57 26 l-48 26 46 87 c25 47
52 96 59 108 8 12 14 24 14 27 0 5 -64 46 -72 46 -2 0 -41 -67 -86 -148z"/>
<path d="M2234 3007 c-47 -36 -161 -129 -276 -225 -43 -36 -78 -69 -78 -73 0
-7 163 -211 205 -256 l20 -22 33 28 33 28 -81 99 -81 99 48 43 c26 23 50 42
53 42 3 -1 23 -24 45 -52 54 -70 106 -128 114 -128 3 1 19 11 34 24 l28 22
-76 95 -76 94 43 37 c24 21 46 38 50 38 4 0 42 -43 84 -95 42 -52 79 -95 83
-95 8 1 61 48 61 55 0 7 -195 249 -213 263 -9 8 -24 2 -53 -21z"/>
<path d="M7651 2947 c-20 -10 -156 -175 -205 -249 l-17 -26 123 -93 c68 -51
150 -114 183 -139 33 -26 72 -54 86 -64 l26 -17 95 128 c102 136 125 184 109
225 -12 31 -74 86 -118 105 -30 12 -38 12 -64 -1 l-29 -14 0 32 c0 43 -29 79
-83 105 -48 23 -71 25 -106 8z m90 -126 c16 -16 29 -34 29 -39 0 -10 -48 -83
-83 -126 l-24 -30 -52 38 -51 38 32 41 c50 66 91 107 106 107 7 0 27 -13 43
-29z m180 -120 c16 -16 29 -34 29 -39 0 -11 -51 -87 -88 -132 l-29 -34 -44 34
c-24 18 -48 37 -53 41 -7 6 44 82 99 146 18 21 56 14 86 -16z"/>
<path d="M2670 2483 c-39 -19 -177 -156 -221 -220 -53 -76 -35 -137 69 -234
111 -104 147 -117 212 -78 33 21 70 56 70 68 0 3 -14 20 -32 38 l-31 32 -29
-24 c-16 -14 -39 -25 -50 -25 -11 0 -45 24 -75 53 -65 63 -70 88 -25 144 52
66 159 163 180 163 35 0 142 -100 142 -133 0 -8 -9 -25 -20 -39 l-19 -25 34
-33 c34 -33 35 -33 56 -14 32 29 49 68 49 113 0 37 -7 48 -71 115 -71 75 -135
116 -180 116 -13 0 -40 -8 -59 -17z"/>
<path d="M7151 2420 l-34 -29 64 -78 c35 -43 72 -87 82 -98 46 -51 107 -139
107 -155 0 -23 -23 -49 -83 -94 -77 -57 -58 -70 -261 178 -43 53 -83 96 -90
96 -6 -1 -26 -13 -44 -29 l-32 -27 129 -160 c70 -87 142 -167 159 -176 66 -39
130 -15 248 95 75 69 91 103 76 155 -12 40 -257 352 -276 352 -6 -1 -26 -14
-45 -30z"/>
<path d="M3199 2109 c-26 -50 -219 -440 -219 -444 0 -6 77 -45 88 -45 5 0 29
43 53 95 23 52 47 95 51 95 12 0 208 -99 208 -105 0 -3 -20 -46 -45 -95 -25
-49 -45 -92 -45 -95 0 -5 75 -45 85 -45 3 0 57 104 121 232 l115 232 -46 24
c-26 13 -48 22 -50 20 -1 -2 -20 -39 -40 -83 -21 -44 -42 -85 -47 -92 -6 -8
-37 2 -111 39 -56 27 -103 51 -105 53 -2 2 18 44 43 95 25 51 45 93 43 95 -2
1 -22 12 -45 24 l-42 21 -12 -21z"/>
<path d="M6443 1959 c-18 -12 -33 -25 -33 -31 0 -15 254 -437 263 -438 5 0 74
39 153 87 l143 86 -21 38 c-24 44 -13 46 -147 -34 -78 -46 -86 -49 -95 -33 -6
10 -32 50 -57 90 -25 39 -48 76 -50 81 -14 35 -106 175 -114 175 -5 0 -25 -10
-42 -21z"/>
<path d="M3737 1599 c-43 -132 -76 -246 -74 -253 4 -11 86 -42 91 -34 4 5 53
165 88 286 18 61 35 106 39 100 3 -7 17 -80 29 -163 49 -324 40 -288 85 -303
22 -8 59 -20 82 -27 l41 -13 52 162 c29 88 64 199 80 246 l28 85 -22 12 c-12
6 -35 13 -50 15 -32 3 -23 24 -117 -285 -18 -59 -33 -106 -35 -105 -2 3 -31
176 -65 390 l-13 76 -70 23 c-39 12 -76 23 -81 26 -6 2 -45 -105 -88 -238z"/>
<path d="M5670 1696 l-45 -12 -12 -94 c-6 -52 -16 -160 -23 -240 -6 -80 -13
-160 -16 -179 l-5 -33 48 7 c62 9 63 10 63 54 0 20 6 44 13 52 10 13 206 65
212 57 1 -2 12 -20 25 -42 22 -36 25 -38 63 -32 22 4 46 10 52 14 9 5 -31 77
-129 234 -157 253 -144 241 -246 214z m125 -206 l65 -105 -68 -17 c-87 -23
-105 -23 -98 0 2 9 8 66 11 125 4 59 11 107 16 105 4 -2 38 -50 74 -108z"/>
<path d="M4517 1634 c-3 -11 -17 -84 -31 -164 -14 -80 -31 -170 -36 -200 -6
-30 -12 -73 -13 -95 l-2 -40 45 -6 c25 -4 46 -6 47 -5 3 2 30 141 53 276 12
69 26 149 32 178 6 28 9 54 6 57 -2 3 -25 8 -50 11 -39 6 -47 4 -51 -12z"/>
<path d="M4890 1360 l0 -260 50 0 50 0 1 78 c2 138 2 137 25 140 16 2 43 -23
115 -107 l94 -111 62 0 c35 0 63 2 63 5 0 4 -14 21 -145 169 -33 38 -63 75
-68 82 -5 8 27 53 93 132 55 66 100 123 100 126 0 4 -28 6 -62 4 l-62 -3 -84
-102 c-53 -66 -90 -103 -103 -103 -18 0 -19 8 -19 105 l0 105 -55 0 -55 0 0
-260z"/>
</g>
</svg>
